<svg width="37" height="37" viewBox="0 0 61 61" fill="none" xmlns="http://www.w3.org/2000/svg">
<path d="M45.75 47.9358H43.8183C41.785 47.9358 39.8533 48.7237 38.43 50.1471L34.0837 54.4425C32.1012 56.3996 28.8734 56.3996 26.8909 54.4425L22.5446 50.1471C21.1212 48.7237 19.1642 47.9358 17.1563 47.9358H15.25C11.0308 47.9358 7.625 44.5554 7.625 40.3871V12.6321C7.625 8.46374 11.0308 5.08333 15.25 5.08333H45.75C49.9692 5.08333 53.375 8.46374 53.375 12.6321V40.3617C53.375 44.53 49.9692 47.9358 45.75 47.9358Z" stroke="#5956FF" stroke-width="4" stroke-miterlimit="10" stroke-linecap="round" stroke-linejoin="round"/>
<path d="M30.6779 22.7479C30.5762 22.7479 30.4237 22.7479 30.2966 22.7479C27.6278 22.6463 25.5182 20.4858 25.5182 17.7917C25.5182 15.0467 27.7295 12.8354 30.4745 12.8354C33.2195 12.8354 35.4308 15.0721 35.4308 17.7917C35.4562 20.4858 33.3467 22.6717 30.6779 22.7479Z" stroke="#5956FF" stroke-width="4" stroke-linecap="round" stroke-linejoin="round"/>
<path d="M23.5104 30.3983C20.13 32.6604 20.13 36.3458 23.5104 38.6079C27.3483 41.175 33.6517 41.175 37.4896 38.6079C40.87 36.3458 40.87 32.6604 37.4896 30.3983C33.6517 27.8567 27.3737 27.8567 23.5104 30.3983Z" stroke="#5956FF" stroke-width="4" stroke-linecap="round" stroke-linejoin="round"/>
</svg>
