<svg width="35" height="35" viewBox="0 0 35 35" fill="none" xmlns="http://www.w3.org/2000/svg">
<path d="M24.7916 30.9897H10.2083C4.88538 30.9897 1.82288 27.9272 1.82288 22.6042V12.3959C1.82288 7.073 4.88538 4.0105 10.2083 4.0105H24.7916C30.1145 4.0105 33.177 7.073 33.177 12.3959V22.6042C33.177 27.9272 30.1145 30.9897 24.7916 30.9897ZM10.2083 6.198C6.03746 6.198 4.01038 8.22508 4.01038 12.3959V22.6042C4.01038 26.7751 6.03746 28.8022 10.2083 28.8022H24.7916C28.9625 28.8022 30.9895 26.7751 30.9895 22.6042V12.3959C30.9895 8.22508 28.9625 6.198 24.7916 6.198H10.2083Z" fill="white"/>
<path d="M17.4997 18.7687C16.2747 18.7687 15.0351 18.3895 14.0872 17.6166L9.52263 13.9708C9.05597 13.5916 8.96847 12.9062 9.34764 12.4395C9.72681 11.9729 10.4122 11.8854 10.8789 12.2645L15.4435 15.9104C16.5518 16.8 18.433 16.8 19.5414 15.9104L24.106 12.2645C24.5726 11.8854 25.2726 11.9583 25.6372 12.4395C26.0164 12.9062 25.9435 13.6062 25.4622 13.9708L20.8976 17.6166C19.9643 18.3895 18.7247 18.7687 17.4997 18.7687Z" fill="white"/>
</svg>
