<svg width="35" height="35" viewBox="0 0 35 35" fill="none" xmlns="http://www.w3.org/2000/svg">
<path d="M9.01246 33.1771C8.86662 33.1771 8.70621 33.1626 8.57496 33.148L5.41037 32.7105C3.89371 32.5063 2.52287 31.1501 2.28954 29.6042L1.85204 26.4105C1.70621 25.3896 2.14371 24.0626 2.87287 23.3188L9.27496 16.9167C8.23954 12.7751 9.43537 8.40005 12.4833 5.3813C17.2083 0.670884 24.8937 0.656301 29.6333 5.3813C31.9229 7.67089 33.177 10.7188 33.177 13.9563C33.177 17.1938 31.9229 20.2417 29.6333 22.5313C26.5708 25.5646 22.2104 26.7605 18.0979 25.7105L11.6812 32.1126C11.0687 32.7542 9.97496 33.1771 9.01246 33.1771ZM21.0437 4.02505C18.4916 4.02505 15.9541 4.98755 14.0145 6.92713C11.3895 9.53755 10.4416 13.3584 11.5354 16.9167C11.652 17.3105 11.55 17.7188 11.2583 18.0105L4.40412 24.8646C4.15621 25.1126 3.95204 25.7542 3.99579 26.0896L4.43329 29.2834C4.52079 29.8376 5.11871 30.4646 5.67287 30.5376L8.85204 30.9751C9.20204 31.0334 9.84371 30.8292 10.0916 30.5813L16.975 23.7126C17.2666 23.4209 17.6895 23.3334 18.0687 23.4501C21.5833 24.5584 25.4187 23.6105 28.0437 20.9855C29.9104 19.1188 30.9458 16.6105 30.9458 13.9563C30.9458 11.2876 29.9104 8.7938 28.0437 6.92713C26.1479 5.00213 23.5958 4.02505 21.0437 4.02505Z" fill="white" fill-opacity="0.8"/>
<path d="M13.402 29.9543C13.125 29.9543 12.8479 29.8522 12.6291 29.6334L9.27495 26.2793C8.85203 25.8564 8.85203 25.1564 9.27495 24.7334C9.69787 24.3105 10.3979 24.3105 10.8208 24.7334L14.175 28.0876C14.5979 28.5105 14.5979 29.2105 14.175 29.6334C13.9562 29.8522 13.6791 29.9543 13.402 29.9543Z" fill="white" fill-opacity="0.8"/>
<path d="M21.1459 17.1355C19.3375 17.1355 17.8646 15.6626 17.8646 13.8542C17.8646 12.0459 19.3375 10.573 21.1459 10.573C22.9542 10.573 24.4271 12.0459 24.4271 13.8542C24.4271 15.6626 22.9542 17.1355 21.1459 17.1355ZM21.1459 12.7605C20.548 12.7605 20.0521 13.2563 20.0521 13.8542C20.0521 14.4522 20.548 14.948 21.1459 14.948C21.7438 14.948 22.2396 14.4522 22.2396 13.8542C22.2396 13.2563 21.7438 12.7605 21.1459 12.7605Z" fill="white" fill-opacity="0.8"/>
</svg>
