<svg width="35" height="35" viewBox="0 0 35 35" fill="none" xmlns="http://www.w3.org/2000/svg">
<path d="M17.7327 16.9459C17.689 16.9459 17.6598 16.9459 17.6161 16.9459C17.5432 16.9313 17.4411 16.9313 17.3536 16.9459C13.1244 16.8147 9.93066 13.4897 9.93066 9.39175C9.93066 5.22091 13.3286 1.823 17.4994 1.823C21.6702 1.823 25.0682 5.22091 25.0682 9.39175C25.0536 13.4897 21.8452 16.8147 17.7765 16.9459C17.7619 16.9459 17.7473 16.9459 17.7327 16.9459ZM17.4994 4.0105C14.539 4.0105 12.1182 6.43133 12.1182 9.39175C12.1182 12.3084 14.3932 14.6563 17.2952 14.7584C17.3682 14.7438 17.5723 14.7438 17.7619 14.7584C20.6202 14.6272 22.8661 12.2792 22.8807 9.39175C22.8807 6.43133 20.4598 4.0105 17.4994 4.0105Z" fill="white" fill-opacity="0.8"/>
<path d="M17.7473 32.8853C14.889 32.8853 12.0161 32.1562 9.84318 30.6978C7.8161 29.3562 6.70776 27.5187 6.70776 25.5208C6.70776 23.5228 7.8161 21.6708 9.84318 20.3145C14.2182 17.4124 21.3057 17.4124 25.6515 20.3145C27.664 21.6562 28.7869 23.4937 28.7869 25.4916C28.7869 27.4895 27.6786 29.3416 25.6515 30.6978C23.464 32.1562 20.6057 32.8853 17.7473 32.8853ZM11.0536 22.152C9.6536 23.0853 8.89526 24.2812 8.89526 25.5353C8.89526 26.7749 9.66818 27.9707 11.0536 28.8895C14.6848 31.3249 20.8098 31.3249 24.4411 28.8895C25.8411 27.9562 26.5994 26.7603 26.5994 25.5062C26.5994 24.2666 25.8265 23.0708 24.4411 22.152C20.8098 19.7312 14.6848 19.7312 11.0536 22.152Z" fill="white" fill-opacity="0.8"/>
</svg>
